<?xml version="1.0" encoding="UTF-8" standalone="no"?>
<svg width="17px" height="17px" viewBox="0 0 17 17" version="1.1" xmlns="http://www.w3.org/2000/svg" xmlns:xlink="http://www.w3.org/1999/xlink" xmlns:sketch="http://www.bohemiancoding.com/sketch/ns">
    <!-- Generator: Sketch 3.4.3 (16618) - http://www.bohemiancoding.com/sketch -->
    <title>facebook</title>
    <desc>Created with Sketch.</desc>
    <defs></defs>
    <g id="Page-1" stroke="none" stroke-width="1" fill="none" fill-rule="evenodd" sketch:type="MSPage">
        <g id="facebook" sketch:type="MSArtboardGroup" fill="#33363A">
            <path d="M17,1.0625 C17,0.481445312 16.5185547,0 15.9375,0 L1.0625,0 C0.481445313,0 3.97342977e-16,0.481445312 3.97342977e-16,1.0625 L3.97342977e-16,15.9375 C3.97342977e-16,16.5185547 0.481445313,17 1.0625,17 L9.08935547,17 L9.08935547,10.3925781 L6.96435547,10.3925781 L6.96435547,7.94384766 L9.08935547,7.94384766 L9.08935547,5.82714844 C9.08935547,3.89306641 10.2680664,2.59814453 12.6005859,2.59814453 C13.6298828,2.59814453 14.34375,2.71435547 14.34375,2.71435547 L14.34375,4.92236328 L12.75,4.92236328 C12.0444336,4.92236328 11.6875,5.32080078 11.6875,6.01806641 L11.6875,7.94384766 L14.1694336,7.94384766 L13.8125,10.3925781 L11.6875,10.3925781 L11.6875,17 L15.9375,17 C16.5185547,17 17,16.5185547 17,15.9375 L17,1.0625 Z" sketch:type="MSShapeGroup"></path>
        </g>
    </g>
</svg>