<?xml version="1.0" encoding="UTF-8" standalone="no"?>
<svg width="24px" height="17px" viewBox="0 0 24 17" version="1.1" xmlns="http://www.w3.org/2000/svg" xmlns:xlink="http://www.w3.org/1999/xlink" xmlns:sketch="http://www.bohemiancoding.com/sketch/ns">
    <!-- Generator: Sketch 3.4.3 (16618) - http://www.bohemiancoding.com/sketch -->
    <title>google-plus</title>
    <desc>Created with Sketch.</desc>
    <defs></defs>
    <g id="Page-1" stroke="none" stroke-width="1" fill="none" fill-rule="evenodd" sketch:type="MSPage">
        <g id="google-plus" sketch:type="MSArtboardGroup" fill="#33363A">
            <path d="M24,8 L21.5,8 L21.5,5.5 L19.5,5.5 L19.5,8 L17,8 L17,10 L19.5,10 L19.5,12.5 L21.5,12.5 L21.5,10 L24,10 L24,8 Z M8,7.5 L8,10.62 L12.36,10.62 C12.025,12.5 10.395,13.87 8,13.87 C5.36,13.87 3.215,11.635 3.215,8.995 C3.215,6.355 5.36,4.125 8,4.125 C9.19,4.125 10.255,4.535 11.095,5.335 L11.095,5.34 L13.35,3.085 C11.965,1.795 10.16,1 8,1 C3.58,1 0,4.58 0,9 C0,13.42 3.58,17 8,17 C12.62,17 15.68,13.75 15.68,9.18 C15.68,8.595 15.625,8.035 15.525,7.5 L8,7.5 L8,7.5 Z" sketch:type="MSShapeGroup"></path>
        </g>
    </g>
</svg>