<?xml version="1.0" encoding="UTF-8" standalone="no"?>
<svg width="17px" height="17px" viewBox="0 0 17 17" version="1.1" xmlns="http://www.w3.org/2000/svg" xmlns:xlink="http://www.w3.org/1999/xlink" xmlns:sketch="http://www.bohemiancoding.com/sketch/ns">
    <!-- Generator: Sketch 3.4.3 (16618) - http://www.bohemiancoding.com/sketch -->
    <title>twitter</title>
    <desc>Created with Sketch.</desc>
    <defs></defs>
    <g id="Page-1" stroke="none" stroke-width="1" fill="none" fill-rule="evenodd" sketch:type="MSPage">
        <g id="twitter" sketch:type="MSArtboardGroup" fill="#33363A">
            <path d="M17,3.56632925 C16.3691406,3.83803942 15.7050781,4.02184337 14.9912109,4.10175812 C15.7216797,3.68620139 16.2695312,3.0229089 16.5268555,2.23974427 C15.862793,2.62333511 15.1074219,2.90303676 14.3271484,3.0548748 C13.6713867,2.41555674 12.7666016,2 11.762207,2 C9.83642578,2 8.28417969,3.49440597 8.28417969,5.34842834 C8.28417969,5.61214704 8.30078125,5.88385722 8.35888672,6.12360149 C5.47021484,5.97176345 2.91357422,4.70911028 1.17871094,2.67927544 C0.888183594,3.17474694 0.705566406,3.68620139 0.705566406,4.30953649 C0.705566406,5.460309 1.31982422,6.4832179 2.26611328,7.09057006 C1.69335938,7.07458711 1.16210938,6.92274907 0.688964844,6.67501332 L0.688964844,6.7149707 C0.688964844,8.34523175 1.89257812,9.70378263 3.48632812,10.0074587 C3.1875,10.0873735 2.87207031,10.1273308 2.55664062,10.1273308 C2.34082031,10.1273308 2.125,10.1033564 1.90917969,10.063399 C2.34082031,11.389984 3.64404297,12.380927 5.15478516,12.39691 C3.97607422,13.3079382 2.45703125,13.9872136 0.830078125,13.9872136 C0.547851562,13.9872136 0.273925781,13.9712307 0,13.9312733 C1.53564453,14.8822589 3.38671875,15.2978157 5.35400391,15.2978157 C11.762207,15.2978157 15.2651367,10.1832712 15.2651367,5.74800213 L15.2651367,5.30847096 C15.9375,4.83697389 16.5268555,4.25359616 17,3.56632925 L17,3.56632925 Z" sketch:type="MSShapeGroup"></path>
        </g>
    </g>
</svg>